<mxfile host="app.diagrams.net" modified="2021-11-22T07:52:54.484Z" agent="5.0 (Windows NT 10.0; Win64; x64) AppleWebKit/537.36 (KHTML, like Gecko) Chrome/96.0.4664.45 Safari/537.36 Edg/96.0.1054.29" etag="W79mR38lMsUFo5i_uxLT" version="15.8.3" type="github" pages="2">
  <diagram id="kgpKYQtTHZ0yAKxKKP6v" name="Page-1">
    <mxGraphModel dx="510" dy="577" grid="1" gridSize="10" guides="1" tooltips="1" connect="1" arrows="1" fold="1" page="1" pageScale="1" pageWidth="850" pageHeight="1100" math="0" shadow="0">
      <root>
        <mxCell id="0" />
        <mxCell id="1" parent="0" />
        <mxCell id="3nuBFxr9cyL0pnOWT2aG-1" value=":Controller" style="shape=umlLifeline;perimeter=lifelinePerimeter;container=1;collapsible=0;recursiveResize=0;rounded=0;shadow=0;strokeWidth=1;" parent="1" vertex="1">
          <mxGeometry x="293" y="40" width="100" height="300" as="geometry" />
        </mxCell>
        <mxCell id="3nuBFxr9cyL0pnOWT2aG-4" value="" style="points=[];perimeter=orthogonalPerimeter;rounded=0;shadow=0;strokeWidth=1;" parent="3nuBFxr9cyL0pnOWT2aG-1" vertex="1">
          <mxGeometry x="50" y="120" width="10" height="80" as="geometry" />
        </mxCell>
        <mxCell id="3nuBFxr9cyL0pnOWT2aG-5" value=":Service" style="shape=umlLifeline;perimeter=lifelinePerimeter;container=1;collapsible=0;recursiveResize=0;rounded=0;shadow=0;strokeWidth=1;" parent="1" vertex="1">
          <mxGeometry x="473" y="40" width="100" height="300" as="geometry" />
        </mxCell>
        <mxCell id="3nuBFxr9cyL0pnOWT2aG-6" value="" style="points=[];perimeter=orthogonalPerimeter;rounded=0;shadow=0;strokeWidth=1;" parent="3nuBFxr9cyL0pnOWT2aG-5" vertex="1">
          <mxGeometry x="45" y="80" width="10" height="160" as="geometry" />
        </mxCell>
        <mxCell id="3nuBFxr9cyL0pnOWT2aG-7" value="return" style="verticalAlign=bottom;endArrow=open;dashed=1;endSize=8;exitX=0;exitY=0.95;shadow=0;strokeWidth=1;" parent="1" source="3nuBFxr9cyL0pnOWT2aG-6" edge="1">
          <mxGeometry relative="1" as="geometry">
            <mxPoint x="348" y="271.9999999999998" as="targetPoint" />
          </mxGeometry>
        </mxCell>
        <mxCell id="3nuBFxr9cyL0pnOWT2aG-8" value="dispatch" style="verticalAlign=bottom;endArrow=block;entryX=0;entryY=0;shadow=0;strokeWidth=1;" parent="1" target="3nuBFxr9cyL0pnOWT2aG-6" edge="1">
          <mxGeometry relative="1" as="geometry">
            <mxPoint x="348" y="120.00000000000011" as="sourcePoint" />
          </mxGeometry>
        </mxCell>
        <mxCell id="3nuBFxr9cyL0pnOWT2aG-9" value="callback" style="verticalAlign=bottom;endArrow=block;entryX=1;entryY=0;shadow=0;strokeWidth=1;" parent="1" source="3nuBFxr9cyL0pnOWT2aG-6" target="3nuBFxr9cyL0pnOWT2aG-4" edge="1">
          <mxGeometry relative="1" as="geometry">
            <mxPoint x="413" y="160" as="sourcePoint" />
          </mxGeometry>
        </mxCell>
        <mxCell id="3nuBFxr9cyL0pnOWT2aG-10" value="return" style="verticalAlign=bottom;endArrow=open;dashed=1;endSize=8;exitX=1;exitY=0.95;shadow=0;strokeWidth=1;" parent="1" source="3nuBFxr9cyL0pnOWT2aG-4" target="3nuBFxr9cyL0pnOWT2aG-6" edge="1">
          <mxGeometry relative="1" as="geometry">
            <mxPoint x="413" y="217" as="targetPoint" />
          </mxGeometry>
        </mxCell>
        <mxCell id="Y55vsEolTB_FinEHaRNf-3" value=":Database" style="shape=umlLifeline;perimeter=lifelinePerimeter;container=1;collapsible=0;recursiveResize=0;rounded=0;shadow=0;strokeWidth=1;" parent="1" vertex="1">
          <mxGeometry x="650" y="40" width="100" height="300" as="geometry" />
        </mxCell>
        <mxCell id="Y55vsEolTB_FinEHaRNf-4" value="" style="points=[];perimeter=orthogonalPerimeter;rounded=0;shadow=0;strokeWidth=1;" parent="Y55vsEolTB_FinEHaRNf-3" vertex="1">
          <mxGeometry x="45" y="80" width="10" height="160" as="geometry" />
        </mxCell>
        <mxCell id="Y55vsEolTB_FinEHaRNf-11" value="&lt;b&gt;User&lt;/b&gt;" style="shape=umlLifeline;participant=umlActor;perimeter=lifelinePerimeter;whiteSpace=wrap;html=1;container=1;collapsible=0;recursiveResize=0;verticalAlign=top;spacingTop=36;outlineConnect=0;" parent="1" vertex="1">
          <mxGeometry x="150" y="40" width="20" height="300" as="geometry" />
        </mxCell>
      </root>
    </mxGraphModel>
  </diagram>
  <diagram id="ed-NhCGHqFZ1SgqV4uRb" name="Page-2">
    <mxGraphModel dx="1278" dy="579" grid="1" gridSize="10" guides="1" tooltips="1" connect="1" arrows="1" fold="1" page="1" pageScale="1" pageWidth="850" pageHeight="1100" math="0" shadow="0">
      <root>
        <mxCell id="1MfMEX9GYNMpwurkVAvT-0" />
        <mxCell id="1MfMEX9GYNMpwurkVAvT-1" parent="1MfMEX9GYNMpwurkVAvT-0" />
        <object label="&lt;b&gt;PostgresSQL&lt;/b&gt;" id="1MfMEX9GYNMpwurkVAvT-4">
          <mxCell style="strokeWidth=2;html=1;shape=mxgraph.flowchart.database;whiteSpace=wrap;" vertex="1" parent="1MfMEX9GYNMpwurkVAvT-1">
            <mxGeometry x="940" y="130" width="80" height="90" as="geometry" />
          </mxCell>
        </object>
        <mxCell id="1MfMEX9GYNMpwurkVAvT-5" value="Object" style="html=1;" vertex="1" parent="1MfMEX9GYNMpwurkVAvT-1">
          <mxGeometry x="70" y="130" width="110" height="50" as="geometry" />
        </mxCell>
        <mxCell id="1MfMEX9GYNMpwurkVAvT-8" value="&amp;nbsp;&lt;b&gt;Nodejs Server&lt;/b&gt;" style="shape=umlFrame;whiteSpace=wrap;html=1;width=120;height=30;boundedLbl=1;verticalAlign=middle;align=left;spacingLeft=5;" vertex="1" parent="1MfMEX9GYNMpwurkVAvT-1">
          <mxGeometry x="340" y="75" width="400" height="245" as="geometry" />
        </mxCell>
        <mxCell id="1MfMEX9GYNMpwurkVAvT-10" value="&lt;b&gt;Router&lt;/b&gt;" style="html=1;" vertex="1" parent="1MfMEX9GYNMpwurkVAvT-1">
          <mxGeometry x="360" y="150" width="100" height="120" as="geometry" />
        </mxCell>
        <mxCell id="1MfMEX9GYNMpwurkVAvT-12" value="&lt;b&gt;Controller&lt;/b&gt;" style="html=1;" vertex="1" parent="1MfMEX9GYNMpwurkVAvT-1">
          <mxGeometry x="490" y="150" width="100" height="120" as="geometry" />
        </mxCell>
        <mxCell id="1MfMEX9GYNMpwurkVAvT-13" value="&lt;b&gt;ORM&lt;/b&gt;" style="html=1;" vertex="1" parent="1MfMEX9GYNMpwurkVAvT-1">
          <mxGeometry x="620" y="150" width="100" height="120" as="geometry" />
        </mxCell>
      </root>
    </mxGraphModel>
  </diagram>
</mxfile>
